HIERARCHY
ROOT hip
{
  OFFSET 0 0 0
  CHANNELS 6 Xposition Yposition Zposition Zrotation Yrotation Xrotation
  JOINT abdomen
  {
    OFFSET 0 20.6881 -0.73152
    CHANNELS 3 Zrotation Xrotation Yrotation
    JOINT chest
    {
      OFFSET 0 11.7043 -0.48768
      CHANNELS 3 Zrotation Xrotation Yrotation
      JOINT neck
      {
        OFFSET 0 22.1894 -2.19456
        CHANNELS 3 Zrotation Xrotation Yrotation
        JOINT head
        {
          OFFSET -0.24384 7.07133 1.2192
          CHANNELS 3 Zrotation Xrotation Yrotation
          JOINT leftEye
          {
            OFFSET 4.14528 8.04674 8.04672
            CHANNELS 3 Zrotation Xrotation Yrotation
            End Site
            {
              OFFSET 1 0 0
            }
          }
          JOINT rightEye
          {
            OFFSET -3.6576 8.04674 8.04672
            CHANNELS 3 Zrotation Xrotation Yrotation
            End Site
            {
              OFFSET 1 0 0
            }
          }
        }
      }
      JOINT rCollar
      {
        OFFSET -2.68224 19.2634 -4.8768
        CHANNELS 3 Zrotation Xrotation Yrotation
        JOINT rShldr
        {
          OFFSET -8.77824 -1.95073 1.46304
          CHANNELS 3 Zrotation Xrotation Yrotation
          JOINT rForeArm
          {
            OFFSET -28.1742 -1.7115 0.48768
            CHANNELS 3 Zrotation Xrotation Yrotation
            JOINT rHand
            {
              OFFSET -22.5879 0.773209 7.07136
              CHANNELS 3 Zrotation Xrotation Yrotation
              JOINT rThumb1
              {
                OFFSET -1.2192 -0.487915 3.41376
                CHANNELS 3 Zrotation Xrotation Yrotation
                JOINT rThumb2
                {
                  OFFSET -3.37035 -0.52449 3.41376
                  CHANNELS 3 Zrotation Xrotation Yrotation
                  End Site
                  {
                    OFFSET -1.78271 -1.18214 1.43049
                  }
                }
              }
              JOINT rIndex1
              {
                OFFSET -7.75947 0.938293 5.60832
                CHANNELS 3 Zrotation Xrotation Yrotation
                JOINT rIndex2
                {
                  OFFSET -2.54057 -0.884171 1.56538
                  CHANNELS 3 Zrotation Xrotation Yrotation
                  End Site
                  {
                    OFFSET -1.62519 -0.234802 1.16502
                  }
                }
              }
              JOINT rMid1
              {
                OFFSET -8.24714 1.18213 3.41376
                CHANNELS 3 Zrotation Xrotation Yrotation
                JOINT rMid2
                {
                  OFFSET -3.10165 -0.590103 1.0647
                  CHANNELS 3 Zrotation Xrotation Yrotation
                  End Site
                  {
                    OFFSET -2.48547 -0.328903 0.83742
                  }
                }
              }
              JOINT rRing1
              {
                OFFSET -8.82822 0.546677 1.51678
                CHANNELS 3 Zrotation Xrotation Yrotation
                JOINT rRing2
                {
                  OFFSET -2.60934 -0.819778 -0.0198488
                  CHANNELS 3 Zrotation Xrotation Yrotation
                  End Site
                  {
                    OFFSET -2.33842 -0.294052 0.168128
                  }
                }
              }
              JOINT rPinky1
              {
                OFFSET -8.27202 -0.0477905 -0.4584
                CHANNELS 3 Zrotation Xrotation Yrotation
                JOINT rPinky2
                {
                  OFFSET -1.82734 -0.647385 -0.700984
                  CHANNELS 3 Zrotation Xrotation Yrotation
                  End Site
                  {
                    OFFSET -1.69225 -0.51767 -0.607171
                  }
                }
              }
            }
          }
        }
      }
      JOINT lCollar
      {
        OFFSET 2.68224 19.2634 -4.8768
        CHANNELS 3 Zrotation Xrotation Yrotation
        JOINT lShldr
        {
          OFFSET 8.77824 -1.95073 1.46304
          CHANNELS 3 Zrotation Xrotation Yrotation
          JOINT lForeArm
          {
            OFFSET 28.1742 -1.7115 0.48768
            CHANNELS 3 Zrotation Xrotation Yrotation
            JOINT lHand
            {
              OFFSET 22.5879 0.773209 7.07136
              CHANNELS 3 Zrotation Xrotation Yrotation
              JOINT lThumb1
              {
                OFFSET 1.2192 -0.487915 3.41376
                CHANNELS 3 Zrotation Xrotation Yrotation
                JOINT lThumb2
                {
                  OFFSET 3.37035 -0.52449 3.41376
                  CHANNELS 3 Zrotation Xrotation Yrotation
                  End Site
                  {
                    OFFSET 1.78271 -1.18214 1.43049
                  }
                }
              }
              JOINT lIndex1
              {
                OFFSET 7.75947 0.938293 5.60832
                CHANNELS 3 Zrotation Xrotation Yrotation
                JOINT lIndex2
                {
                  OFFSET 2.54057 -0.884171 1.56538
                  CHANNELS 3 Zrotation Xrotation Yrotation
                  End Site
                  {
                    OFFSET 1.62519 -0.234802 1.16502
                  }
                }
              }
              JOINT lMid1
              {
                OFFSET 8.24714 1.18213 3.41376
                CHANNELS 3 Zrotation Xrotation Yrotation
                JOINT lMid2
                {
                  OFFSET 3.10165 -0.590103 1.0647
                  CHANNELS 3 Zrotation Xrotation Yrotation
                  End Site
                  {
                    OFFSET 2.48547 -0.328903 0.83742
                  }
                }
              }
              JOINT lRing1
              {
                OFFSET 8.82822 0.546677 1.51678
                CHANNELS 3 Zrotation Xrotation Yrotation
                JOINT lRing2
                {
                  OFFSET 2.60934 -0.819778 -0.0198488
                  CHANNELS 3 Zrotation Xrotation Yrotation
                  End Site
                  {
                    OFFSET 2.33842 -0.294052 0.168128
                  }
                }
              }
              JOINT lPinky1
              {
                OFFSET 8.27202 -0.0477905 -0.4584
                CHANNELS 3 Zrotation Xrotation Yrotation
                JOINT lPinky2
                {
                  OFFSET 1.82734 -0.647385 -0.700984
                  CHANNELS 3 Zrotation Xrotation Yrotation
                  End Site
                  {
                    OFFSET 1.69225 -0.51767 -0.607171
                  }
                }
              }
            }
          }
        }
      }
    }
  }
  JOINT rButtock
  {
    OFFSET -8.77824 4.35084 1.2192
    CHANNELS 3 Zrotation Xrotation Yrotation
    JOINT rThigh
    {
      OFFSET 0 -1.70687 -2.19456
      CHANNELS 3 Zrotation Xrotation Yrotation
      JOINT rShin
      {
        OFFSET 0 -36.8199 0.73152
        CHANNELS 3 Zrotation Xrotation Yrotation
        JOINT rFoot
        {
          OFFSET 0.73152 -45.1104 -5.12064
          CHANNELS 3 Zrotation Xrotation Yrotation
          End Site
          {
            OFFSET -1.1221 -3.69964 12.103
          }
        }
      }
    }
  }
  JOINT lButtock
  {
    OFFSET 8.77824 4.35084 1.2192
    CHANNELS 3 Zrotation Xrotation Yrotation
    JOINT lThigh
    {
      OFFSET 0 -1.70687 -2.19456
      CHANNELS 3 Zrotation Xrotation Yrotation
      JOINT lShin
      {
        OFFSET 0 -36.8199 0.73152
        CHANNELS 3 Zrotation Xrotation Yrotation
        JOINT lFoot
        {
          OFFSET -0.73152 -45.1104 -5.12064
          CHANNELS 3 Zrotation Xrotation Yrotation
          End Site
          {
            OFFSET 1.1221 -3.69964 12.103
          }
        }
      }
    }
  }
}
MOTION
Frames:	6
Frame Time:	0.00833333
0.0 0.0 0.0 0.0 0.0 0.0 0.0 0.0 0.0 0.0 0.0 0.0 0.0 0.0 0.0 0.0 0.0 0.0 0.0 0.0 0.0 0.0 0.0 0.0 0.0 0.0 0.0 0.0 0.0 0.0 0.0 0.0 0.0 0.0 0.0 0.0 0.0 0.0 0.0 0.0 0.0 0.0 0.0 0.0 0.0 0.0 0.0 0.0 0.0 0.0 0.0 0.0 0.0 0.0 0.0 0.0 0.0 0.0 0.0 0.0 0.0 0.0 0.0 0.0 0.0 0.0 0.0 0.0 0.0 0.0 0.0 0.0 0.0 0.0 0.0 0.0 0.0 0.0 0.0 0.0 0.0 0.0 0.0 0.0 0.0 0.0 0.0 0.0 0.0 0.0 0.0 0.0 0.0 0.0 0.0 0.0 0.0 0.0 0.0 0.0 0.0 0.0 0.0 0.0 0.0 0.0 0.0 0.0 0.0 0.0 0.0 0.0 0.0 0.0 0.0 0.0 0.0 0.0 0.0 0.0 0.0 0.0 0.0 0.0 0.0 0.0 0.0 0.0 0.0 0.0 0.0 0.0
1.8002 -1.0354 5.3873999999999995 -170.45269 -24.55601 119.084113 -145.603349 50.002047 138.213091 178.309316 47.546555 42.858019 -147.559776 -67.20987 99.329921 -50.475774 -42.876295 176.176753 -146.387753 -0.276923 -0.916842 -60.563513 -23.89446 39.837465 -42.376159 -47.760926 -160.697643 171.191541 61.57452 30.924538 -25.974736 0.014281 164.939087 163.055338 62.745389 -7.440876 8.905977 15.701321 -170.066302 -10.174013 10.855722 -142.730467 12.449117 11.050057 -132.019805 122.707049 -42.257582 -77.583695 4.846469 12.917847 162.064731 153.674677 -30.439902 -146.768936 60.861344 16.572476 158.001155 111.092445 -21.958159 -111.39219 59.203636 43.251148 -171.677377 178.118013 -44.65784 -36.063322 -62.17946 21.401025 -30.149909 104.125099 -3.845501 -90.595757 -176.985945 1.62946 -20.910307 -19.17412 36.988368 142.210931 172.782328 17.26102 -120.685069 -155.303058 -59.023236 40.897046 -108.005948 71.967123 78.136523 -86.639182 -45.452682 128.989154 -70.10058 32.876002 0.58767 142.384024 -18.864403 87.075905 -21.388483 -8.124887 -151.940706 -132.168298 -12.121866 -18.899258 -103.351653 -46.9948 15.850901 138.772395 -56.568653 -52.586557 100.773018 42.320402 -180.0 142.778506 -24.535545 -101.601204 95.981779 -59.028934 -90.282082 -70.040962 -57.150913 -105.983821 -11.522692 3.921579 15.956354 -72.596062 -17.633986 -84.575628 98.697108 21.125351 155.042713 -149.654201 -69.792627 -179.400053
2.8032999999999997 -0.9251 8.1097 -168.516269 -17.000847 119.174175 -141.091171 50.874646 87.505829 -141.081124 32.397105 -16.597993 178.712104 -63.128904 -89.322855 72.988919 36.684894 -37.538873 -149.642218 -0.820503 -3.023705 -65.784945 -22.41021 34.059758 -56.692298 2.922099 178.947258 5.759179 -0.999069 166.685669 -103.581573 -78.553626 30.857086 154.095495 0.274966 -32.953416 -176.884267 -6.054473 -101.471573 62.242868 -25.518562 159.326705 -17.391978 20.591306 -132.784126 -2.069027 -11.866361 -166.146156 8.126633 44.809981 156.021104 -85.576072 74.699754 -10.575303 57.297857 4.569582 161.531862 -168.362869 -2.26236 -67.409466 -172.972998 -46.485303 -6.379044 139.232377 -17.679609 68.513133 -59.005186 19.098012 -31.313315 -78.426982 4.815377 -78.198318 87.225647 43.572862 104.166152 -156.475448 52.089403 -42.403581 173.855569 -1.485625 -121.003982 -131.885886 34.190272 -20.106752 -80.389198 48.384187 60.820554 -3.900292 11.60285 171.835146 -21.286682 69.911467 -51.785664 85.516334 11.982045 121.333737 120.523579 -76.716881 -55.758978 -48.902508 -27.120762 -127.37307 -71.638514 -54.899283 50.477202 -170.900797 12.674992 -57.844944 160.741418 -14.13781 87.943896 -152.597118 -16.840797 -64.315088 -103.065135 -25.134742 -10.182613 133.480687 5.199318 36.866916 -0.892421 2.792785 17.728958 -79.391075 -13.451932 -0.0 145.117901 -72.103797 65.790508 134.724532 37.954549 18.755889
3.8396 -0.8696 10.8164 -165.566451 -13.371245 120.186698 -138.240405 53.161624 47.884204 -130.434429 5.448096 -45.176754 -140.754641 -54.092057 159.570838 -64.275081 -3.539408 147.903315 -151.389671 -1.175196 -4.606419 -69.133739 -20.338914 29.185495 -49.200281 -22.711002 -174.768833 -167.662149 -3.512325 14.13757 -13.639721 -5.824455 -178.054499 19.394351 69.38757 150.724435 7.161691 19.48101 -170.108085 -42.590588 16.429963 -144.050392 156.82678 10.317906 -111.887885 81.857281 -73.231986 177.891556 133.171388 -69.968827 -63.847647 163.265661 72.714263 -94.395089 -149.251077 -41.765854 8.539294 133.224711 3.12282 43.643676 127.717753 -67.282662 -72.488432 140.85571 -47.1057 36.435257 63.804319 18.595897 -128.539876 -115.661226 -41.523622 171.705851 5.550733 -24.385913 154.14983 -19.678932 51.355242 148.888461 -67.860676 -80.573222 -22.402725 -152.128235 -35.340716 154.132201 66.775706 -25.286076 162.71986 151.218878 23.524816 48.863554 81.122716 -66.485427 -160.889174 91.241211 -46.38644 -66.147345 142.782723 -72.464126 -34.93516 103.570526 -16.498914 -34.892454 23.777735 24.521149 146.323736 -132.816701 53.701254 -76.754622 163.840332 -24.512565 78.537367 -143.862367 -22.252705 -117.411297 -103.472919 -59.599223 113.625 86.906929 74.374238 135.982107 -15.916777 -3.339481 0.0 -60.422421 -27.470367 76.056222 -113.188429 -37.374384 -54.619352 147.841136 -58.49658 109.047773
4.8916 -0.8499 13.489300000000002 -162.556314 -11.961847 121.571438 -135.201737 50.835948 -180.0 135.74421 32.970962 107.275353 -166.924248 -58.878875 -102.878991 48.721823 68.586725 -9.160448 -152.244692 -1.369654 -5.539731 -70.948494 -18.074436 25.163551 -47.737155 -23.452261 -174.973524 -161.821959 -18.48963 14.458605 -95.170584 65.343573 -109.337401 160.039773 38.543364 -19.480301 167.074688 -17.037638 -107.35407 144.550334 48.12959 5.515829 155.955812 9.583357 -112.811141 93.854063 -80.206311 -169.224837 10.436521 -4.219513 166.374967 146.108833 -5.427504 -148.791893 119.340275 53.629349 101.313835 -101.310989 30.66523 -9.707307 65.212487 48.376472 -173.517639 -168.910754 -24.086013 -24.148153 -115.229936 -53.698546 -32.59238 71.715003 -18.23166 154.391022 92.384135 -41.537822 -74.834 -152.120088 62.788369 -52.303951 175.378349 -9.537525 -119.601267 -44.828945 -56.879557 -149.81688 -113.044944 67.772499 79.279133 -177.905046 11.173828 71.955564 -40.478403 65.660549 -37.69663 18.541481 1.929716 114.583249 -77.83648 44.236914 -111.269242 136.356467 58.245272 86.88365 -2.961253 -30.949965 119.728007 -42.910745 21.117337 -162.919488 64.611973 5.449419 -102.974786 102.988044 -63.078753 -78.378975 109.157666 -46.227159 -148.923782 -106.708098 16.466113 -26.444107 -4.361674 -5.948175 5.144369 -70.666561 -21.537855 180.0 -144.146096 73.091455 -145.316614 -146.113976 20.437336 -63.976495
5.9512 -0.8499 16.121199999999998 -160.165882 -11.558916 122.863003 -138.706455 53.298165 132.390694 -175.907854 55.182947 39.833611 -126.796448 -57.060694 134.491604 -42.348878 -41.507941 170.59578 -152.516004 -1.467376 -5.995153 -71.693774 -16.03078 22.058271 -51.144694 -3.232552 179.122056 175.921768 25.426379 18.812335 -159.74614 -86.759282 22.97401 17.753868 31.89063 168.154931 157.906381 -21.285007 -111.876485 36.867507 -35.847666 155.730107 -77.401946 27.057252 -120.528361 100.515776 -11.442857 -134.752903 167.544604 62.383202 -9.533437 152.874833 17.732611 73.344557 65.335899 12.497612 155.602372 109.162831 -18.097668 -109.994877 139.346412 75.988633 104.850402 -141.9263 -49.748562 -11.544093 -32.947137 35.456252 -50.347824 0.524392 -5.844677 -96.028789 102.638669 83.614444 140.582529 -140.925743 -17.539369 -6.098227 10.589192 15.128009 26.407119 -32.937936 14.967176 102.727801 16.200524 -41.670916 121.67291 14.769114 67.137287 156.440001 79.126964 -56.597004 -156.799542 177.657286 -17.880771 -29.546463 -161.692192 17.013088 -34.009288 116.963621 8.550701 53.015327 -66.424064 -49.041045 58.203463 -14.050564 -47.157414 -175.13426 169.501454 -13.982008 88.421713 -150.541354 -16.740029 -65.125264 -100.431553 -11.095976 142.148615 132.558152 -5.192874 134.777482 64.843098 39.146382 60.73735 -169.662364 32.133369 119.09317 -101.433134 -13.336486 104.117615 103.361582 -57.442988 123.605255
